<?xml version="1.0" encoding="UTF-8"?>
<svg width="1200pt" height="1200pt" version="1.1" viewBox="0 0 1200 1200" xmlns="http://www.w3.org/2000/svg">
 <path d="m134.61 503.9 4.0195-6.6484-11.23-7.8242 8.3984-17.137-6.9375-2.3984 14.051-4.5234-9.2539-4.4766 7.1992-5.1016 5.8203 2.3984-0.89844-18.359 12.215-1.2852 2.0742 6.3594 18.695-6.8984-0.86328-30.348 5.8672-7.8008 6.8281 5.7617 12.086-30.91 24.91-3.7188-14.398-21.602-9.7305-0.69531 3.1328-10.273-9.7188 0.70703 1.0547-8.2578-11.797 0.23828-2.3984-11.844 1.0078-8.3984 8.3984 2.6875 1.2852-12.719 10.801 2.9766-4.043-11.438 6.4805-11.34-2.8086-4.0664 4.9336-14.641 9.0859-3.0117-10.379-4.2461-0.25391-4.5234 20.867-9.8516 22.945 17.711 1.2852 7.3086 7.3672-3.2773 20.809 4.6445 6.4219-24-3.6016-20.125 30-11.242-7.0547-25.633 7.5977-3.4219v-8.1602l-9.7812-14.855 3.8164-6.6953 14.09-6 5.3164-17.016-6.8164-14.664-10.633-2.6172 6-16.645 3.9609 8.1602 11.352 0.99609 3.1914 10.801 18.613 5.0508 4.2109 5.8555 7.668-7.1992 18.336 1.0547 26.723 12.781 16.211-3.0234 14.398 5.1484 3.1211 25.715 13.535-2.8672 12.551 4.668 2.7461 16.164-6.1562 8.3984 9.0859-2.5781 6 5.5664 20.027 3.0117 17.746 16.945 10.691-1.7891-3.8164-6 7.0664-8.8438 1.7148-21.602 14.398 5.6406 2.2305 6.2031 12.973-1.4414 24 18.562 17.113-12.852 2.3281 7.1992 10.801 4.0938 9.875-17.93 23.844-7.0781 10.691 2.3984 10.141 14.258 26.531 18.254 7.7773 15.984-2.6641 26.027-9.6172 17.789 5.4609 14.027-20.172 16.691 0.35937 17.449 13.391-3.1914 4.3555 6.4453 1.0664 40.801-10.668 7.043 9.0117 11.629 19.043 4.4297 23.328 22.691 11.195-4.957 7.3086 5.1133 3.0703-5.4844 15.602-5.1367 17.617 32.953 33.602-10.441 35.363 27.348 4.2969 11.652 11.398 9.0703-1.8711 4.1758 8.3984 2.5938-2.3984 6.5273 6.707 20.172 10.309 12-12.996 8.8086 0.30078 11.773 15.012 1.3555 7.5-16.945 8.9883 6.707-4.5703 2.3984 3.2773 16.211 26.461-8.8555-7.043 21.742 20.965 72.66 9.7422 0.85156 20.398-16.535 22.379 10.094 31.031 1.3789 17.652-4.5117 5.1484 5.4492 20.746-6.2383 10.055 3.1094 12.289-15.336 6-1.957 3.5156 5.8906 13.066-8.0391 8.1719 10.188-2.4727 5.1367-48.758 26.398-1.2969 9.5156-16.164 24.406 4.9062 5.0156-5.2812 7.5469-1.8945 22.523-18.445 21.695-10.379 1.0938-11.172-8.3047-13.633 17.555-20.281-0.5625-4.4531 22.285-27.602 4.6562-13.105 8.4844-20.398-5.3633 1.8945 13.727-10.188-0.097656-2.7227 23.699-6.2539 6.2539-25.285-9.6602-20.398 2.3984 4.043-8.1016-22.871-12.48-15.18 7.4766-3.3008 14.305-8.5195 8.2578-6.0859-1.9453-6-13.094-6.6484 5.207 5.1367 10.547-7.1992 10.801 30.695 13.199 0.83984-7.6328 22.008 5.375 0.61328 13.043-5.1602 1.1992-2.4727 10.969 11.734 9.1797-9.7812 6.168-25.199-6.7305-0.89844-6.2773-12.527-8.5312-6.3359 9.6016-3.3945-10.871-9.3242-3.9844-4.2461-21.047-9.2891-13.586-14.398-0.61328-4.5352-7.9062-11.438 14.797-20.855 4.9688-8.6055 14.398-4.2344 10.922 9.8164 2.6758 8.6758 9.6016-5.1602 16.969-21.266 25.535-13.285 1.043-9.5273-14.965-12.227 1.9219-8.3984-9.6719-30 16.715-35.746 7.8125-16.727 11.879-38.027 5.1953-9.6719 13.199-1.5703 66.422-9.9727 5.5664-34.512-7.0664-24.984 10.715-4.8008 5.0391 1.1992 18.961-8.9648-1.1992-2.3047-10.609-6-0.89844-0.3125 17.125-14.566 15.758-14.531-0.74219-22.895-17.844-13.727 10.5-36.359-6.0703-21.191 12.793-14.113-0.53906-4.4297 25.199-13.727 7.0547-3.6016 12.695h-9.2031l-3.8516 5.375-10.883-4.2852-6.4922-14.184-8.1484 10.57-27.059-9.0586-20.965 7.5469-19.691-5.2422-13.535 2.4844-12.469-8.6875-22.969-2.2422 0.15625-20.09-4.5859-6.9961 4.4141-18-5.375-3.0234-0.71875-10.57 6.4219-15.996-5.1953-0.25391-0.30078-6.2891 3.2383-4.4648 7.7031 1.2734 7.4023-8.6523 6 2.6758 0.30078-12.527-23.016-9.4688-19.609 3.2383-16.297-4.2109-13.812-5.7617-11.734-16.094 13.477-1.3789 1.1055-4.4141 16.512 1.8242 3.0234-6.5742 8.5781-1.7656-5.6523-11.723 17.23-4.7031 1.1992-15.527-8.6406 2.3047-3.8867-6.2383 11.484-3.8281 0.43359-8.3984-10.285-0.625 3.3477-17.004 7.957 0.99609-4.1992-32.207 10.895-24.383-8.7109-24-24.312-14.293 9.1914-11.699-4.3672-2.7344 17.566-13.945-4.8008-3.0859 4.1641-20.398 11.27 4.0781 6.8516-4.4883 1.7773-7.9453-6-5.7617 14.785-0.57422 0.15625-6.1328 8.8672 2.4844 0.085937-6.3945 6.9844-1.5 2.9141-6.7812-1.1055 5.4844 8.5078 2.0742 0.38281-8.1602-22.246-6.7305-0.45703-7.4883-9.8164 3.3242-4.9805-5.9141-6.1094 8.0508-2.7461-6.3242-11.867-3.7812 2.4727-27.359 26.461-13.895 0.92578-4.2461-14.566-4.5859 1.5117-4.7031 3.6016-6.3242 5.6289 2.1836 5.4609-13.668 5.6875 0.58984-2.7227-9.4219 7.4297 1.332 1.7031-13.68 4.8008 2.8438 2.2188-5.7227-1.7031-6-12.77-4.2344-11.027-10.895 12.996-11.387-0.67188-13.094-7.9219-12.145 9.168-19.367z"/>
</svg>
